<?xml version="1.0" encoding="UTF-8"?>
<svg width="45.465mm" height="126.73mm" version="1.1" viewBox="0 0 161.09623 449.03096" xmlns="http://www.w3.org/2000/svg">
 <g transform="translate(-245.99 -200.35)" stroke="#000">
  <path d="m323 200.86-7.5 4-5.5 5-4 8.5-1.5 9.5 2.5 13 3.4453 6.1504-2.9453-7.1504v-20.5s2.1466-6.868 5-8.5c1.0127-0.57922 3.5 0 3.5 0l5 2.5 7 6 7.5 9.5 2 6-1 11.5 0.5 6-10.5-0.5-7.5 2c-3.7433 0.21641-5.9143-2.1876-7.6738-5.2774l2.6738 4.7774 1 7-2 5 57.5 8.5-6.5-23 2.5-2 1.5-5.5 1-6s1.7454-4.7639 1-7c-0.59628-1.7888-4-4-4-4l-6.5-8.5-5.5-6-5-4-8-2.5-8.5-4z" fill-rule="evenodd" stroke-width="1px"/>
  <path d="m313.5 264.86-6 2-12.5 1.5-7.5 5s-4.1719 2.9084-5.5 5c-1.2152 1.9137-2 6.5-2 6.5l-5 13-4 14-4.5 9-2 7s-2.9468 8.7192-2 13c0.64888 2.9337 5 7.5 5 7.5l9 10.5 5 5.5 6.5 4 5.5 3 98-2 2-12.5 1.5-13.5-5-7.5 1-15-4-11.5-3-10.5s2.3292-5.0536 1-7c-3.7671-5.5162-14-16.5-14-16.5l-4.5-14.5z" fill-rule="evenodd" stroke-width="1px"/>
  <path d="m295 370.86-2.5 35.5-8 32.5-7 26-2.5 16-1.5 11.5-6 33-6 27.5-1.5 13.5-3 22.5v21.5l29 6 32.5 1 40.5 1 36.5 2h11l-7-45-4-68-3.5-58.5-2-25 0.5-54.5z" fill-rule="evenodd" stroke-width="1px"/>
  <path d="m260 611.36 2 10.5-1.5 4.5-8.5 5-5.5 5 0.5 9 12.5 2h10.5l7.5-2.5s11.687 6.5738 12 2.5c0 0 2.9546-17.637 0.58579-26-0.61778-2.1811-2.5858-5.5-2.5858-5.5z" fill-rule="evenodd" stroke-width="1px"/>
  <path d="m357 618.86-3.5 7s-2.6481 0.96085-3.5 2c-2.0048 2.4455-3 9-3 9l1 5.5-0.5 4 22.5 2.5 3.5-3.5 1-10.5 2-16.5z" fill-rule="evenodd" stroke-width="1px"/>
  <path d="m314.99 224.01-0.75-1.125s0.81839-0.60594 1.25-0.875c1.1711-0.73007 2.3948-1.3745 3.625-2 0.6148-0.3126 1.2017-0.72562 1.875-0.875 0.65084-0.14439 1.3414-0.10359 2 0 1.3407 0.21089 3.875 1.25 3.875 1.25s-2.9308-0.20227-4.375 0c-1.2016 0.16829-2.3583 0.58924-3.5 1-0.68471 0.24634-1.3856 0.48501-2 0.875-0.74788 0.47476-2 1.75-2 1.75z" fill-rule="evenodd" stroke-width="1px"/>
  <path d="m312.62 227.08c-0.41889-1.0831-1.5262-1.915-2.6289-2.3314-0.70089-0.26467-1.7406-0.53801-2.2533 0-1.2563 1.3182-0.79464 4.0068 0.37556 5.399 0.41191 0.49006 1.2356 0.57445 1.8778 0.49082 0.90814-0.11828 1.8777-0.59781 2.3785-1.3498 0.4131-0.6203 0.51825-1.516 0.25037-2.2087z" fill-rule="evenodd" stroke-width=".99151px"/>
  <path d="m317.24 225.51c0.66726-0.74947 1.342-1.5729 2.25-2 0.99184-0.46651 2.1571-0.41642 3.25-0.5 0.70627-0.054 1.5028-0.3385 2.125 0 0.74111 0.40318 1.4316 1.2832 1.375 2.125-0.0258 0.38328-0.46843 0.61369-0.75 0.875-1.2889 1.1962-2.5672 2.6149-4.25 3.125-0.87816 0.26617-1.9649 0.34998-2.75-0.125-0.49527-0.29963-0.46822-1.0882-0.875-1.5-0.34146-0.34571-1.25-0.75-1.25-0.75s0.5368-0.87013 0.875-1.25z" fill-rule="evenodd" stroke-width="1px"/>
  <path d="m320.61 242.14s-2.4292-1.2078-3.75-1.375c-0.83086-0.10515-1.6913 0.0322-2.5 0.25-0.48613 0.13096-1.0125 0.27565-1.375 0.625-0.67089 0.6465-1.25 2.5-1.25 2.5s0.87956 1.0534 1.5 1.25c1.4744 0.4673 3.2284 0.28977 4.625-0.375 1.1974-0.56997 2.75-2.875 2.75-2.875z" fill-rule="evenodd" stroke-width="1px"/>
  <path d="m313.11 229.39-2.125 3.875s-0.9538 1.3435-1 2.125c-0.07 1.1838 1.125 3.375 1.125 3.375l2.125-0.625" fill="none" stroke-width="1px"/>
 </g>
</svg>
